<?xml version="1.0" encoding="utf-8"?>
<!-- Generator: Adobe Illustrator 21.0.2, SVG Export Plug-In . SVG Version: 6.00 Build 0)  -->
<svg version="1.1" id="Layer_1" xmlns="http://www.w3.org/2000/svg" xmlns:xlink="http://www.w3.org/1999/xlink" x="0px" y="0px"
	 viewBox="0 0 195 18" style="enable-background:new 0 0 195 18;" xml:space="preserve">
<style type="text/css">
	.st0{fill:#E75300;}
	.st1{fill-rule:evenodd;clip-rule:evenodd;fill:#AD441D;}
	.st2{fill-rule:evenodd;clip-rule:evenodd;fill:#FFD26C;}
	.st3{fill:#FFFFFF;}
	.st4{fill-rule:evenodd;clip-rule:evenodd;fill:#FFC656;}
	.st5{fill:#00758D;}
	.st6{fill-rule:evenodd;clip-rule:evenodd;fill:#231F20;}
</style>
<g>
	<path class="st0" d="M14.4,6.7c1,0.7,1.9,1.7,1.9,2.3c0,0.3-1.2,1.5-2.6,2c0.3,1.2,0.3,2.6,0,3c-0.2,0.2-1.8,0.4-3.1-0.1
		c0.1-0.3,0.1-0.6,0.1-1c0-1.5,2.1-2.6,2.1-5.3c0-2.6-2.5-4.4-4.6-4.4c-2.1,0-4.6,1.9-4.6,4.4c0,2.7,2,3.7,2.1,5.3
		c0,0.4,0.1,0.8,0.2,1.1c-1,0.4-2.3,0.7-2.7,0.4c-0.3-0.2-0.7-1.8-0.4-3.2c-1.2-0.3-2.4-1-2.6-1.5c-0.1-0.3,0.6-1.9,1.7-2.8
		c-0.7-1-1.2-2.3-1-2.8c0.1-0.3,1.7-1,3.1-1C4,1.8,4.4,0.5,4.9,0.2c0.3-0.1,1.9,0.3,3,1.2C8.8,0.6,10-0.1,10.6,0
		c0.3,0.1,1.3,1.5,1.5,2.9c1.2-0.1,2.6,0.1,2.9,0.6C15.3,3.7,15.1,5.4,14.4,6.7z"/>
	<path class="st1" d="M9.8,9.5c1,0.1,2-0.7,3-0.1c0.4,0.2,0.7,0.8,0.9,1.6c-0.5,0.2-1,0.2-1.4,0.2C11.4,11,10.4,10.2,9.8,9.5z
		 M5.8,8.5c-0.6,0.8-0.4,2.1-1.4,2.7c-0.4,0.2-1.1,0.2-1.8,0c0.1-0.5,0.3-0.9,0.6-1.3C3.7,9.2,4.9,8.7,5.8,8.5z M5.9,6.9
		C5,7.1,4.3,8.2,3.1,8C2.7,8,2.2,7.5,1.8,6.9C2.1,6.5,2.6,6.3,3,6.2C3.9,6.1,5.1,6.5,5.9,6.9z M7.1,5.7c-0.9-0.4-2.1,0-2.9-0.9
		C3.9,4.5,3.8,3.8,3.9,3c0.5,0,1,0.1,1.4,0.3C6,3.8,6.7,4.9,7.1,5.7z M8.7,5.6C8.3,4.7,7.1,4.2,7.1,3c0-0.4,0.4-1,0.9-1.6
		c0.4,0.3,0.7,0.7,0.8,1.1C9.1,3.4,8.9,4.7,8.7,5.6z M10.4,8.1c0.8-0.6,1.1-1.8,2.2-2c0.4-0.1,1.1,0.2,1.7,0.6c-0.3,0.4-0.6,0.8-1,1
		C12.7,8.1,11.4,8.2,10.4,8.1z M12.1,2.9c0.1,0.5,0.1,1-0.1,1.4c-0.3,0.8-1.2,1.7-2,2.2c0.3-1-0.3-2.1,0.4-3
		C10.7,3.2,11.4,3,12.1,2.9z"/>
	<path class="st2" d="M6.4,14.7c-0.2-0.1-0.4-0.2-0.5-0.4C5.7,14,5.6,13.6,5.6,13c0-1.5-2.1-2.6-2.1-5.3c0-2.6,2.5-4.4,4.6-4.4
		c2.1,0,4.6,1.9,4.6,4.4c0,2.7-2,3.7-2.1,5.3c0,0.7-0.2,1.1-0.4,1.4c-0.1,0.2-0.3,0.3-0.4,0.3c0,0,0,0,0,0L6.4,14.7L6.4,14.7z"/>
	<path class="st3" d="M9,8.4c0.1-0.1,0.6,0,1-0.1c0.1,0,0.3-0.1,0.4-0.2C9.7,8,9.2,7.8,9.1,7.6c0-0.1,0.5-0.3,0.7-0.8
		C9.9,6.8,10,6.6,10,6.5C9.4,6.9,8.9,7.1,8.7,7C8.6,6.9,8.9,6.5,8.8,6c0-0.1-0.1-0.3-0.1-0.4C8.5,6.3,8.2,6.8,8,6.8
		C7.9,6.8,7.8,6.3,7.4,6C7.3,5.9,7.2,5.8,7.1,5.7C7.3,6.4,7.5,7,7.3,7.1c-0.1,0.1-0.5-0.2-1-0.2c-0.1,0-0.3,0-0.4,0
		C6.6,7.2,7,7.6,7,7.7c0,0.1-0.5,0.2-0.9,0.5C6,8.3,5.9,8.4,5.8,8.5c0.7-0.2,1.3-0.2,1.4,0c0.1,0.1-0.3,0.5-0.4,1c0,0.1,0,0.3,0,0.4
		c0.4-0.6,0.9-1,1-0.9c0.1,0.1,0.1,0.6,0.3,1c0.1,0.1,0.2,0.2,0.2,0.3c0-0.7,0-1.3,0.2-1.4c0.1,0,0.4,0.4,0.9,0.6
		c0.1,0.1,0.3,0.1,0.4,0.1C9.3,9,8.9,8.5,9,8.4z"/>
	<path class="st4" d="M10.1,13.8c-0.1-0.1-0.3-0.1-0.4-0.2c-0.2-0.1-0.4-0.3-0.6-0.5c-0.6-0.6-0.8-1.9-0.9-2.9
		c0.7,0.7,2,0.8,2.4,1.9c0,0,0,0.1,0,0.1l0.1,0.2c-0.1,0.2-0.1,0.4-0.1,0.5c0,0.4-0.1,0.7-0.1,1C10.4,13.9,10.3,13.8,10.1,13.8z
		 M6.7,9.8c0.1,1,1,1.9,0.6,3c-0.1,0.3-0.5,0.6-0.9,0.9c-0.1,0.1-0.3,0.2-0.5,0.2C5.9,14,5.8,14,5.7,14c-0.1-0.3-0.2-0.6-0.2-1.1
		c0,0,0-0.1,0-0.1c0-0.1,0-0.2,0-0.3c0-0.1,0-0.2,0-0.3C5.7,11.5,6.2,10.5,6.7,9.8z M11.7,5c-0.4,0.6-1.1,1.1-1.7,1.5
		c0.2-0.9-0.2-1.8,0.2-2.7C10.7,4.1,11.3,4.5,11.7,5z M10.4,8.1c0.8-0.5,1-1.6,2-2c0.2,0.5,0.3,1,0.3,1.6c0,0.1,0,0.2,0,0.3
		C12,8.1,11.1,8.2,10.4,8.1z M8.7,5.6C8.3,4.8,7.3,4.3,7.1,3.4c0.3-0.1,0.7-0.1,1-0.1c0.3,0,0.6,0,0.8,0.1C9,4.1,8.9,4.9,8.7,5.6z
		 M7.1,5.7C6.3,5.4,5.2,5.6,4.5,5.1c0.4-0.5,0.9-0.9,1.4-1.2C6.4,4.4,6.8,5.1,7.1,5.7z M5.9,6.9C5.1,7.1,4.5,8,3.5,8.1
		c0-0.1,0-0.2,0-0.4c0-0.5,0.1-1,0.3-1.5C4.5,6.3,5.3,6.6,5.9,6.9z M5.8,8.5C5.3,9.2,5.4,10.3,4.7,11C4.3,10.5,4,10,3.8,9.3
		C4.4,8.9,5.1,8.7,5.8,8.5z M9.8,9.5c0.9,0.1,1.8-0.6,2.7-0.2c-0.2,0.7-0.5,1.2-0.9,1.7C11,10.6,10.3,10.1,9.8,9.5z"/>
	<path class="st5" d="M9.9,16.2v0.2c0.2,0,0.3,0.1,0.3,0.3c0,0.2-0.1,0.3-0.3,0.3l-1.1,0.3c0.1,0.1,0.1,0.2,0.1,0.3
		c0,0.2-0.1,0.3-0.3,0.3H7.7c-0.2,0-0.3-0.1-0.3-0.3c0-0.1,0.1-0.2,0.2-0.3l-1.2-0.3c-0.2,0-0.3-0.1-0.3-0.3c0-0.2,0.1-0.3,0.3-0.3
		h2.8l0-0.1l-2.8-0.2c-0.2,0-0.3-0.1-0.3-0.3c0-0.2,0.1-0.3,0.3-0.3h2.8l0-0.1l-2.8-0.2c-0.2,0-0.3-0.1-0.3-0.3
		c0-0.2,0.1-0.3,0.3-0.3h3.5c0.2,0,0.3,0.1,0.3,0.3c0,0.2-0.1,0.3-0.3,0.3h0v0.2h0c0.2,0,0.3,0.1,0.3,0.3
		C10.2,16.1,10,16.2,9.9,16.2z"/>
</g>
<g>
	<path class="st6" d="M25.6,5.5c0.4,0,0.6,0.3,0.6,0.6v1.1h-1V6.5h-1v5.3h-1.2V6.5h-1v0.7h-1v-1c0-0.4,0.2-0.7,0.6-0.7H25.6z"/>
	<path class="st6" d="M28.1,7.8c0.3-0.3,0.8-0.6,1.5-0.6c1.1,0,1.6,0.6,1.6,1.8v2h0.7v0.9H30V9.1c0-0.6-0.1-0.9-0.7-0.9
		c-0.7,0-1.3,0.6-1.3,1.5l0,2.2h-1.1l0-5.4h-0.4V5.5h1.5V7.8z"/>
	<path class="st6" d="M34.6,11c-0.7,0-1.2-0.4-1.3-1.2h3.1c0,0,0-0.3,0-0.5c0-1.2-0.7-2.2-2-2.2c-1.3,0-2.3,1-2.3,2.4
		c0,1.4,1,2.4,2.4,2.4c0.6,0,1.2-0.2,1.7-0.5c0.1-0.1,0.2-0.2,0.2-0.2l-0.5-0.9C35.5,10.7,35.1,11,34.6,11z M34.4,8.1
		c0.4,0,0.8,0.3,0.9,0.9h-2C33.5,8.4,33.9,8.1,34.4,8.1z"/>
</g>
<g>
	<g>
		<path class="st6" d="M90.2,7.8c0.2-0.6,1.2-1.6,2.1-1.6c0.2,0,0.6,0.1,0.6,0.1v2c0,0-0.5-0.1-0.7-0.1c-1.4,0-2,1.4-2,2.8v3.3h-1.9
			V8c0,0,0-0.1,0-0.1c0,0,0,0-0.1,0h-1V6.3H89c0.7,0,1.2,0.3,1.2,1C90.2,7.4,90.2,7.7,90.2,7.8z"/>
		<path class="st6" d="M62.5,7.3c0.5-0.6,1.3-1.2,2.6-1.2c1.9,0,2.7,1.1,2.7,3.1l0,3.2v0.2c0,0,0,0.1,0,0.1c0,0,0,0,0.1,0h1v1.6
			h-1.8c-0.7,0-1.2-0.3-1.2-1l0-0.4l0-3.3c0-1-0.2-1.6-1.1-1.6c-1.3,0-2.2,1.2-2.2,2.6v0.8v1.3v1.6h-1.9v-1.6v-1V8c0,0,0-0.1,0-0.1
			c0,0,0,0-0.1,0h-1V6.3h1.7C62,6.3,62.5,6.7,62.5,7.3z"/>
		<path class="st6" d="M44.8,14.3c-3.3,0-5.7-2.5-5.7-5.7c0-3.2,2.4-5.6,5.6-5.6c1.3,0,4.3,0.5,4.3,2.3v1.5H47V5.8
			c0-0.8-1.8-1-2.3-1c-2.1,0-3.6,1.5-3.6,3.8c0,2.4,1.6,4,3.7,4c2.3,0,3.3-1.5,3.3-1.5l1,1.4C49.2,12.3,47.9,14.3,44.8,14.3z"/>
		<path class="st6" d="M54.5,6.1c-2.4,0-4.3,1.8-4.3,4.2c0,2.4,1.9,4.2,4.3,4.2c2.4,0,4.3-1.8,4.3-4.2C58.8,7.9,56.8,6.1,54.5,6.1z
			 M54.5,12.7c-1.3,0-2.3-1-2.3-2.4c0-1.4,1-2.4,2.3-2.4c1.3,0,2.3,1,2.3,2.4C56.8,11.7,55.7,12.7,54.5,12.7z"/>
		<path class="st6" d="M73.9,14.5c-2.3,0-4.3-1.6-4.3-4.2c0-2.4,1.9-4.2,4.2-4.2c1.2,0,3.2,0.4,3.2,2v0.8h-1.8V8.5
			c0-0.4-1.1-0.6-1.4-0.6c-1.4,0-2.3,0.9-2.3,2.4c0,1.6,1.1,2.4,2.4,2.4c1.1,0,1.7-0.5,2.5-1.1l0.8,1.5C76.3,14,75.3,14.5,73.9,14.5
			z"/>
		<path class="st6" d="M82.1,6.1c-2.4,0-4.3,1.8-4.3,4.2c0,2.4,1.9,4.2,4.3,4.2c2.4,0,4.3-1.8,4.3-4.2C86.5,7.9,84.5,6.1,82.1,6.1z
			 M82.1,12.7c-1.3,0-2.3-1-2.3-2.4c0-1.4,1-2.4,2.3-2.4c1.3,0,2.3,1,2.3,2.4C84.5,11.7,83.4,12.7,82.1,12.7z"/>
		<path class="st6" d="M101.4,12.7C101.3,12.7,101.3,12.7,101.4,12.7C101.3,12.7,101.3,12.7,101.4,12.7l-0.1-9.4h-2.9V5h0.9v1.9
			c-0.6-0.5-1.3-0.7-2-0.7c-2.2,0-3.7,1.7-3.7,4.2c0,2.4,1.3,4.2,3.5,4.2c0.9,0,1.7-0.3,2.3-0.9c0.1,0.5,0.5,0.8,1.2,0.8h1.8v-1.6
			H101.4z M97.5,12.7c-1.1,0-1.9-0.9-1.9-2.4c0-1.6,0.9-2.4,1.9-2.4c1.2,0,1.9,1.1,1.9,2.4C99.4,12.1,98.4,12.7,97.5,12.7z"/>
	</g>
	<g>
		<rect x="167" y="3.2" class="st6" width="2.1" height="2"/>
		<g>
			<path class="st6" d="M129.1,7.2c0.5-0.6,1.4-1.2,2.7-1.2c1.9,0,2.8,1.1,2.8,3.2l0,3.2v0.2c0,0,0,0.1,0,0.1c0,0,0,0,0.1,0h1.2v1.7
				h-2c-0.7,0-1.2-0.3-1.2-1l0-0.4l0-3.4c0-1.1-0.2-1.6-1.2-1.6c-1.3,0-2.3,1.2-2.3,2.6v0.8v1.3v1.7h-2v-1.7v-1V7.9c0,0,0-0.1,0-0.1
				c0,0,0,0-0.1,0h-1V6.2h1.8C128.7,6.2,129.1,6.6,129.1,7.2z"/>
			<path class="st6" d="M121.4,6c-2.4,0-4.4,1.8-4.4,4.2c0,2.5,2,4.3,4.4,4.3c2.4,0,4.4-1.8,4.4-4.3C125.7,7.8,123.8,6,121.4,6z
				 M121.4,12.7c-1.3,0-2.3-1-2.3-2.5c0-1.4,1.1-2.4,2.3-2.4c1.3,0,2.3,1,2.3,2.4C123.7,11.7,122.6,12.7,121.4,12.7z"/>
			<path class="st6" d="M139.3,14.5c-1.9,0-3.1-1.5-3.1-1.5l1.1-1.3c0,0,0.8,1.1,2.1,1.1c0.8,0,1.3-0.3,1.3-0.7c0-0.7-1.2-1-1.7-1.1
				c-1.1-0.4-2.5-1-2.5-2.6c0-1.7,1.7-2.4,3.1-2.4c1,0,2.9,0.4,2.9,1.8v0.8h-1.8V8.3c0-0.2-0.3-0.5-1.1-0.5c-0.7,0-1.1,0.3-1.1,0.7
				c0,0.6,1.1,0.9,1.6,1.1c1.1,0.4,2.7,0.9,2.7,2.5C142.6,13.7,141.1,14.5,139.3,14.5z"/>
			<path class="st6" d="M148.1,6c-2.4,0-4.4,1.8-4.4,4.2c0,2.5,2,4.3,4.4,4.3c2.4,0,4.4-1.8,4.4-4.3C152.4,7.8,150.5,6,148.1,6z
				 M148.1,12.7c-1.3,0-2.3-1-2.3-2.5c0-1.4,1.1-2.4,2.3-2.4c1.3,0,2.3,1,2.3,2.4C150.4,11.7,149.3,12.7,148.1,12.7z"/>
			<path class="st6" d="M156.2,7.7c0.2-0.6,1.2-1.6,2.1-1.6c0.2,0,0.6,0.1,0.6,0.1v2c0,0-0.5-0.1-0.7-0.1c-1.4,0-2,1.4-2,2.9v3.4h-2
				V7.9c0,0,0-0.1,0-0.1c0,0,0,0-0.1,0H153V6.2h2c0.7,0,1.2,0.3,1.2,1C156.2,7.3,156.2,7.7,156.2,7.7z"/>
			<path class="st6" d="M163.8,14.4c-1,0-3.2-0.3-3.2-3.1l0-3.4h-1.1V6.2h1.1V4.1h2l0,2.1h1.8v1.7h-1.8l0,3.3c0,1.3,0.8,1.5,1.4,1.5
				c0.2,0,0.6,0,0.6,0v1.7C164.6,14.3,164.1,14.4,163.8,14.4z"/>
			<path class="st6" d="M169.8,14.3h-2.1c-0.5,0-0.9-0.4-0.9-1.2V7.9h-1.3V6.2h2.1c1.1,0,1.2,0.8,1.2,1.2v5.2h1V14.3z"/>
			<path class="st6" d="M177,13.4c-0.5,0.6-1.3,1.2-2.6,1.2c-1.8,0-2.8-1.1-2.8-3.2V7.9h-1V6.2h2c0.6,0,1,0.5,1,0.9v3.9
				c0,1,0.2,1.6,1.2,1.6c1.3,0,2.2-1.3,2.2-2.7l0-3.8l2,0v6.4c0,0.1,0,0.1,0.1,0.1h0.9v1.6h-1.7C177.5,14.3,177,14,177,13.4z"/>
			<path class="st6" d="M183.9,7.2c0.6-0.7,1.5-1.2,2.4-1.2c1.1,0,1.9,0.5,2.3,1.4c0.6-0.8,1.5-1.4,2.7-1.4c1.9,0,2.7,1.1,2.7,3.2
				v3.5h0.9v1.7h-2.9V9.5c0-1.1-0.2-1.6-1.1-1.6c-1.2,0-2,1.2-2,2.7v1.3v2.5h-2V9.5c0-1-0.2-1.6-1.1-1.6c-1.2,0-2,1.3-2,2.8v3.7h-2
				v-1.7v-0.9V7.9c0,0,0,0,0,0c0,0,0,0-0.1,0h-1.2V6.2h2C183.4,6.2,183.9,6.6,183.9,7.2z"/>
			<path class="st6" d="M111.6,14.5c-3.3,0-5.7-2.6-5.7-5.8c0-3.3,2.5-5.7,5.7-5.7c1.4,0,4.3,0.5,4.3,2.4v1.6h-1.9V5.8
				c0-0.8-1.8-1-2.3-1c-2.1,0-3.7,1.5-3.7,3.8c0,2.4,1.6,4,3.8,4c2.3,0,3.4-1.6,3.4-1.6l1,1.4C116.1,12.5,114.8,14.5,111.6,14.5z"/>
		</g>
	</g>
</g>
</svg>
